<svg width="250" height="73" viewBox="0 0 250 73" fill="none" xmlns="http://www.w3.org/2000/svg">
<path d="M118.951 31.084V47.9786H107.235C100.432 47.9786 100.432 46.2892 100.432 39.5313C100.432 33.7871 100.432 31.084 107.235 31.084H118.951ZM132.367 57.9465V9.28992H118.951V21.2851H107.235C90.606 21.2851 86.8268 26.3535 86.8268 39.5313C86.8268 52.0333 89.4723 57.9465 107.424 57.9465H132.367ZM154.665 39.5313C154.665 33.1113 154.665 31.084 161.468 31.084H165.625V21.2851H161.468C144.839 21.2851 141.06 23.6504 141.06 39.5313V57.9465H154.665V39.5313ZM205.307 31.084V47.9786H193.592C186.789 47.9786 186.789 46.2892 186.789 39.5313C186.789 33.7871 186.789 31.084 193.592 31.084H205.307ZM218.724 57.9465V21.2851H193.592C176.963 21.2851 173.184 26.3535 173.184 39.5313C173.184 52.0333 175.829 57.9465 193.781 57.9465H218.724ZM34.0112 21.2851L34.1057 57.9465H47.5221V31.084H57.7262C64.5289 31.084 64.5289 33.1113 64.5289 39.5313V57.9465H78.1344V39.5313C78.1344 23.6504 74.3551 21.2851 57.7262 21.2851H34.0112ZM23.9016 21.2851H10.3906V57.9465H23.9016V21.2851Z" fill="#00475D"/>
</svg>
