<svg width="874" height="1010" viewBox="0 0 874 1010" fill="none" xmlns="http://www.w3.org/2000/svg">
<path d="M807.235 170.094L707.003 238.116C705.994 238.804 704.849 239.166 703.683 239.166C702.517 239.166 701.372 238.804 700.363 238.116L584.905 159.709C575.483 153.316 564.797 149.95 553.919 149.95C543.041 149.95 532.355 153.316 522.934 159.709L440.408 215.731L580.232 310.645C581.246 311.328 582.088 312.315 582.673 313.503C583.259 314.692 583.567 316.042 583.567 317.416C583.567 318.789 583.259 320.139 582.673 321.328C582.088 322.516 581.246 323.503 580.232 324.186L480.082 392.185C479.07 392.872 477.921 393.234 476.752 393.234C475.583 393.234 474.435 392.872 473.422 392.185L357.902 313.801C348.486 307.403 337.802 304.035 326.927 304.035C316.051 304.035 305.368 307.403 295.951 313.801L213.425 369.824L233.775 383.607L353.25 464.737C354.263 465.421 355.105 466.407 355.691 467.596C356.276 468.785 356.585 470.134 356.585 471.508C356.585 472.882 356.276 474.231 355.691 475.42C355.105 476.609 354.263 477.595 353.25 478.279L256.543 543.94C254.481 545.342 252.142 546.081 249.76 546.081C247.378 546.081 245.038 545.342 242.976 543.94L233.775 537.675L120.284 460.568L99.9547 446.786L6.77229 383.582C4.71289 382.181 3.00308 380.168 1.8144 377.745C0.625728 375.321 0 372.573 0 369.776C0 366.978 0.625728 364.23 1.8144 361.806C3.00308 359.383 4.71289 357.37 6.77229 355.969L508.793 15.1823C522.501 5.877 538.05 0.978149 553.878 0.978149C569.706 0.978149 585.256 5.877 598.963 15.1823L646.979 47.7839L667.472 61.663L807.317 156.576C808.316 157.275 809.143 158.269 809.714 159.46C810.285 160.65 810.581 161.996 810.573 163.363C810.564 164.73 810.252 166.07 809.666 167.251C809.081 168.432 808.243 169.412 807.235 170.094Z" fill="#0075BC"/>
<path d="M864.02 285.681C865.033 284.996 866.182 284.637 867.35 284.639C868.519 284.641 869.666 285.004 870.678 285.693C871.689 286.381 872.528 287.371 873.112 288.561C873.695 289.752 874.001 291.102 874 292.476V575.264C874.002 593.876 869.837 612.162 861.923 628.281C854.008 644.401 842.625 657.786 828.916 667.093L693.661 758.946L326.854 1007.86C324.794 1009.25 322.459 1009.98 320.083 1009.98C317.707 1009.98 315.373 1009.24 313.314 1007.85C311.256 1006.45 309.545 1004.44 308.353 1002.03C307.162 999.609 306.531 996.866 306.524 994.072V673.237C306.521 670.437 307.147 667.686 308.338 665.262C309.529 662.838 311.243 660.826 313.308 659.43L410.015 593.769C411.027 593.079 412.176 592.715 413.346 592.713C414.515 592.711 415.665 593.072 416.679 593.758C417.693 594.444 418.535 595.432 419.12 596.623C419.706 597.814 420.015 599.165 420.016 600.54V790.439L502.541 734.416C511.957 728.019 519.776 718.823 525.215 707.751C530.653 696.679 533.52 684.12 533.527 671.334V514.542C533.528 513.168 533.837 511.818 534.423 510.629C535.01 509.44 535.853 508.455 536.868 507.772L637.038 439.773C638.05 439.089 639.196 438.73 640.363 438.731C641.53 438.732 642.676 439.094 643.687 439.779C644.697 440.465 645.537 441.451 646.122 442.638C646.706 443.825 647.016 445.172 647.018 446.544V636.443L729.544 580.42C738.962 574.027 746.784 564.832 752.223 553.759C757.662 542.686 760.527 530.125 760.53 517.338V360.474C760.53 359.1 760.84 357.75 761.426 356.561C762.013 355.372 762.856 354.386 763.87 353.703L864.02 285.681Z" fill="#0075BC"/>
</svg>
