<svg width="216" height="52" viewBox="0 0 216 52" fill="none" xmlns="http://www.w3.org/2000/svg">
<g clip-path="url(#clip0_34_270)">
<path d="M41.5582 8.71575L36.3981 12.2212C36.3462 12.2566 36.2873 12.2753 36.2272 12.2753C36.1672 12.2753 36.1082 12.2566 36.0563 12.2212L30.1123 8.18056C29.6273 7.85112 29.0772 7.67768 28.5172 7.67768C27.9572 7.67768 27.407 7.85112 26.922 8.18056L22.6734 11.0676L29.8718 15.9588C29.924 15.994 29.9673 16.0448 29.9975 16.1061C30.0276 16.1674 30.0435 16.2369 30.0435 16.3077C30.0435 16.3785 30.0276 16.448 29.9975 16.5093C29.9673 16.5706 29.924 16.6214 29.8718 16.6566L24.7159 20.1608C24.6638 20.1962 24.6047 20.2149 24.5445 20.2149C24.4843 20.2149 24.4252 20.1962 24.3731 20.1608L18.4259 16.1214C17.9412 15.7917 17.3911 15.6181 16.8313 15.6181C16.2714 15.6181 15.7214 15.7917 15.2366 16.1214L10.9881 19.0085L12.0357 19.7187L18.1864 23.8996C18.2386 23.9349 18.2819 23.9857 18.3121 24.047C18.3422 24.1082 18.3581 24.1778 18.3581 24.2486C18.3581 24.3194 18.3422 24.3889 18.3121 24.4502C18.2819 24.5114 18.2386 24.5623 18.1864 24.5975L13.2078 27.9812C13.1017 28.0535 12.9812 28.0915 12.8586 28.0915C12.736 28.0915 12.6155 28.0535 12.5094 27.9812L12.0357 27.6584L6.193 23.6848L5.14642 22.9746L0.349257 19.7175C0.243237 19.6453 0.155213 19.5415 0.0940184 19.4167C0.0328237 19.2918 0.000610352 19.1501 0.000610352 19.006C0.000610352 18.8618 0.0328237 18.7202 0.0940184 18.5953C0.155213 18.4704 0.243237 18.3667 0.349257 18.2945L26.194 0.732658C26.8997 0.253125 27.7002 0.000671387 28.5151 0.000671387C29.3299 0.000671387 30.1304 0.253125 30.8361 0.732658L33.308 2.41272L34.363 3.12796L41.5625 8.01914C41.6139 8.05515 41.6564 8.10638 41.6858 8.16773C41.7152 8.22908 41.7305 8.29843 41.73 8.36887C41.7296 8.43931 41.7135 8.50839 41.6834 8.56925C41.6533 8.6301 41.6101 8.68061 41.5582 8.71575Z" fill="#0075BC"/>
<path d="M44.4816 14.6723C44.5338 14.637 44.5929 14.6185 44.6531 14.6186C44.7132 14.6187 44.7723 14.6374 44.8244 14.6729C44.8764 14.7084 44.9196 14.7594 44.9497 14.8207C44.9797 14.8821 44.9955 14.9517 44.9954 15.0225V29.5954C44.9955 30.5546 44.7811 31.4969 44.3736 32.3276C43.9662 33.1583 43.3801 33.8481 42.6744 34.3277L35.7113 39.0612L16.8275 51.8882C16.7215 51.96 16.6013 51.9977 16.4789 51.9977C16.3566 51.9976 16.2365 51.9597 16.1305 51.8878C16.0245 51.8158 15.9365 51.7124 15.8751 51.5879C15.8138 51.4633 15.7813 51.3219 15.7809 51.178V34.6443C15.7808 34.5 15.813 34.3583 15.8743 34.2333C15.9356 34.1084 16.0239 34.0047 16.1302 33.9328L21.1088 30.5491C21.1609 30.5135 21.22 30.4948 21.2802 30.4947C21.3405 30.4946 21.3997 30.5131 21.4518 30.5485C21.504 30.5839 21.5474 30.6348 21.5775 30.6961C21.6077 30.7575 21.6236 30.8271 21.6236 30.898V40.6841L25.8722 37.7971C26.3569 37.4674 26.7594 36.9935 27.0394 36.4229C27.3194 35.8523 27.467 35.2051 27.4674 34.5462V26.4663C27.4674 26.3954 27.4833 26.3259 27.5135 26.2646C27.5437 26.2033 27.5871 26.1525 27.6393 26.1173L32.7963 22.6132C32.8483 22.5779 32.9074 22.5594 32.9674 22.5595C33.0275 22.5595 33.0865 22.5781 33.1385 22.6135C33.1906 22.6488 33.2338 22.6996 33.2639 22.7608C33.294 22.822 33.3099 22.8914 33.3101 22.9621V32.7482L37.5586 29.8612C38.0435 29.5317 38.4461 29.0578 38.7261 28.4872C39.0061 27.9166 39.1536 27.2693 39.1538 26.6103V18.5266C39.1538 18.4558 39.1697 18.3862 39.1999 18.325C39.2301 18.2637 39.2735 18.2129 39.3258 18.1777L44.4816 14.6723Z" fill="#0075BC"/>
<path d="M58.9396 30.3914C56.4392 30.3914 54.4473 29.5934 52.964 27.9973C51.4806 26.4013 50.7069 24.0325 50.6429 20.8909V19.5809C50.7077 17.6115 51.0839 15.9223 51.7718 14.5134C52.4355 13.134 53.4305 12.0161 54.632 11.2998C55.8502 10.5647 57.2751 10.1971 58.9069 10.1971C60.7708 10.1971 62.3125 10.6334 63.5321 11.5059C64.7229 12.348 65.6769 13.584 66.2751 15.0597C66.8948 16.5539 67.2046 18.2609 67.2046 20.1806V21.0784C67.2091 21.2026 67.1916 21.3265 67.1533 21.4424C67.1149 21.5582 67.0566 21.6634 66.9819 21.7513C66.9072 21.8392 66.8178 21.9079 66.7194 21.953C66.621 21.9981 66.5157 22.0187 66.4102 22.0134H56.2398V22.2754C56.2522 22.9554 56.365 23.6277 56.5732 24.2622C56.7516 24.8245 57.06 25.317 57.4636 25.684C57.8823 26.0432 58.3911 26.2273 58.909 26.2067C59.2748 26.2211 59.6386 26.1384 59.9735 25.9646C60.235 25.8217 60.4762 25.6324 60.6888 25.4033C60.8459 25.2326 60.9945 25.0514 61.134 24.8607C61.325 24.5863 61.478 24.4187 61.5951 24.3553C61.7734 24.2815 61.9623 24.2499 62.1511 24.2622H66.0926C66.2867 24.2525 66.4763 24.3333 66.6201 24.4869C66.6887 24.5622 66.7405 24.6562 66.7711 24.7605C66.8016 24.8649 66.8099 24.9764 66.7953 25.0855C66.7742 25.5101 66.5941 26.0213 66.2551 26.619C65.8474 27.3012 65.3486 27.9012 64.7781 28.3959C64.131 28.982 63.3221 29.4622 62.3515 29.8363C61.3809 30.2105 60.2436 30.3955 58.9396 30.3914ZM56.2377 18.3093H61.613V18.2348C61.6275 17.515 61.5251 16.7985 61.3113 16.1239C61.1306 15.5678 60.8086 15.0908 60.3892 14.758C59.9496 14.4248 59.4349 14.2552 58.9122 14.2712C58.4045 14.2565 57.9053 14.4265 57.4826 14.758C57.0689 15.0979 56.7484 15.5727 56.5605 16.1239C56.3358 16.7954 56.2281 17.5133 56.244 18.2348L56.2377 18.3093Z" fill="#333333"/>
<path d="M70.9837 37.1278C70.8768 37.1318 70.7705 37.1088 70.6719 37.0604C70.5733 37.012 70.4846 36.9393 70.4118 36.8471C70.2675 36.6719 70.1875 36.4368 70.1892 36.1928V11.5022C70.1847 11.378 70.2022 11.254 70.2406 11.1382C70.2789 11.0224 70.3373 10.9172 70.412 10.8293C70.4866 10.7414 70.576 10.6727 70.6744 10.6276C70.7728 10.5824 70.8781 10.5619 70.9837 10.5671H74.5707C74.7782 10.5647 74.978 10.6589 75.1267 10.8291C75.2052 10.9146 75.2671 11.019 75.3082 11.1351C75.3493 11.2512 75.3688 11.3764 75.3651 11.5022V12.8482C75.9071 12.0686 76.5775 11.4261 77.3359 10.9595C78.1412 10.4488 79.1259 10.1934 80.29 10.1934C81.3492 10.1934 82.2815 10.3863 83.0868 10.772C83.8798 11.1499 84.5909 11.7315 85.1684 12.4744C85.7726 13.2667 86.2322 14.1965 86.5188 15.2062C86.8544 16.402 87.0364 17.6501 87.059 18.9091C87.08 19.4058 87.0906 19.8673 87.0906 20.2936C87.0906 20.7183 87.08 21.179 87.059 21.6782C87.033 22.9125 86.8509 24.1353 86.5188 25.3065C86.2335 26.3129 85.7797 27.2418 85.1842 28.0383C84.6068 28.7907 83.8958 29.3842 83.1016 29.7767C82.2857 30.1906 81.3485 30.3976 80.29 30.3976C79.2518 30.3976 78.3459 30.1795 77.5722 29.7432C76.8125 29.3203 76.1525 28.6846 75.65 27.8918V36.1965C75.6512 36.4404 75.5713 36.6753 75.4274 36.8509C75.3545 36.9428 75.2658 37.0154 75.1672 37.0638C75.0686 37.1122 74.9624 37.1353 74.8556 37.1315L70.9837 37.1278ZM78.5798 25.3822C79.2993 25.3822 79.862 25.2076 80.2678 24.8582C80.6759 24.5006 80.9812 24.0044 81.1424 23.4364C81.3295 22.795 81.4417 22.1267 81.4758 21.4497C81.518 20.6773 81.518 19.9025 81.4758 19.1301C81.4416 18.4532 81.3294 17.7848 81.1424 17.1433C80.9808 16.5759 80.6756 16.0802 80.2678 15.7228C79.8662 15.3735 79.3035 15.1988 78.5798 15.1988C77.9011 15.1988 77.35 15.3797 76.9266 15.7414C76.5095 16.0925 76.1893 16.58 76.0055 17.1433C75.8095 17.7428 75.6917 18.3737 75.6563 19.0146C75.6342 19.4877 75.6236 19.9497 75.6236 20.3979C75.6236 20.8462 75.6342 21.3218 75.6563 21.8197C75.6725 22.4209 75.7912 23.0121 76.0055 23.5581C76.2127 24.0896 76.5415 24.5428 76.955 24.8669C77.3813 25.2088 77.9229 25.3798 78.5798 25.3798V25.3822Z" fill="#333333"/>
<path d="M91.0374 30.0176C90.9306 30.0219 90.8242 29.999 90.7255 29.9506C90.6269 29.9022 90.5382 29.8293 90.4656 29.737C90.3209 29.562 90.2409 29.3268 90.243 29.0826V4.39449C90.2385 4.27029 90.256 4.14636 90.2943 4.03053C90.3327 3.9147 90.391 3.80951 90.4657 3.72161C90.5404 3.63371 90.6298 3.56502 90.7282 3.5199C90.8266 3.47477 90.9319 3.45419 91.0374 3.45946H95.1056C95.2112 3.45402 95.3166 3.47447 95.4151 3.51951C95.5137 3.56456 95.6032 3.63322 95.678 3.72113C95.7528 3.80905 95.8112 3.91431 95.8496 4.03022C95.888 4.14614 95.9055 4.27018 95.9011 4.39449V12.7364C96.4864 11.9521 97.2053 11.3214 98.0111 10.885C98.8488 10.4231 99.8183 10.1925 100.92 10.1934C102.148 10.1934 103.244 10.5175 104.209 11.1657C105.187 11.8309 105.976 12.8192 106.481 14.008C107.031 15.2555 107.307 16.8015 107.307 18.6458V29.0826C107.309 29.3265 107.229 29.5616 107.085 29.737C107.012 29.8293 106.924 29.9021 106.825 29.9505C106.726 29.9989 106.619 30.0218 106.512 30.0176H102.415C102.206 30.0116 102.007 29.9112 101.859 29.7371C101.711 29.5631 101.625 29.3287 101.62 29.0826V18.8743C101.62 17.7021 101.382 16.7981 100.906 16.1624C100.43 15.5266 99.736 15.2087 98.8245 15.2087C97.9341 15.2087 97.224 15.5266 96.6944 16.1624C96.1648 16.7981 95.9004 17.7021 95.9011 18.8743V29.0863C95.9027 29.3304 95.8227 29.5654 95.6784 29.7407C95.6058 29.833 95.5171 29.9058 95.4185 29.9542C95.3198 30.0026 95.2135 30.0255 95.1066 30.0213L91.0374 30.0176Z" fill="#333333"/>
<path d="M118.529 30.3914C116.027 30.3914 114.035 29.5934 112.553 27.9973C111.072 26.4013 110.298 24.0325 110.232 20.8909V19.5809C110.296 17.6115 110.672 15.9223 111.36 14.5134C112.025 13.1342 113.02 12.0164 114.221 11.2998C115.44 10.5647 116.865 10.1971 118.496 10.1971C120.36 10.1971 121.902 10.6334 123.121 11.5059C124.314 12.3467 125.27 13.5828 125.87 15.0597C126.484 16.5564 126.791 18.2646 126.792 20.1843V21.0821C126.796 21.2064 126.779 21.3305 126.741 21.4464C126.702 21.5623 126.644 21.6676 126.569 21.7555C126.494 21.8434 126.405 21.9121 126.306 21.9571C126.208 22.0021 126.102 22.0226 125.996 22.0171H115.827V22.2791C115.84 22.9592 115.952 23.6314 116.161 24.2659C116.339 24.8283 116.647 25.3207 117.051 25.6877C117.47 26.047 117.979 26.231 118.496 26.2105C118.862 26.2249 119.226 26.1421 119.561 25.9683C119.822 25.8254 120.064 25.6361 120.276 25.4071C120.433 25.2363 120.582 25.0551 120.721 24.8644C120.912 24.59 121.065 24.4224 121.182 24.359C121.361 24.2853 121.55 24.2536 121.738 24.2659H125.679C125.873 24.2563 126.063 24.337 126.206 24.4907C126.275 24.5659 126.327 24.6599 126.357 24.7642C126.388 24.8686 126.396 24.9802 126.382 25.0892C126.36 25.5139 126.18 26.025 125.841 26.6227C125.434 27.3049 124.935 27.905 124.364 28.3996C123.717 28.9857 122.908 29.4659 121.938 29.8401C120.967 30.2142 119.831 30.398 118.529 30.3914ZM115.827 18.3093H121.198V18.2348C121.213 17.515 121.11 16.7985 120.897 16.1239C120.716 15.568 120.394 15.0911 119.974 14.758C119.535 14.4249 119.02 14.2553 118.497 14.2712C117.989 14.2567 117.49 14.4266 117.067 14.758C116.654 15.0984 116.334 15.573 116.146 16.1239C115.921 16.7954 115.813 17.5133 115.829 18.2348L115.827 18.3093Z" fill="#333333"/>
<path d="M130.573 30.0176C130.466 30.0219 130.36 29.999 130.261 29.9506C130.163 29.9022 130.074 29.8293 130.001 29.737C129.857 29.562 129.777 29.3268 129.779 29.0826V11.5022C129.774 11.378 129.792 11.254 129.83 11.1382C129.868 11.0224 129.927 10.9172 130.001 10.8293C130.076 10.7414 130.165 10.6727 130.264 10.6276C130.362 10.5824 130.468 10.5619 130.573 10.5671H134.038C134.143 10.5619 134.249 10.5824 134.347 10.6276C134.445 10.6727 134.535 10.7414 134.61 10.8293C134.684 10.9172 134.743 11.0224 134.781 11.1382C134.819 11.254 134.837 11.378 134.832 11.5022V12.7737C135.254 12.1007 135.848 11.5084 136.612 10.9968C137.377 10.4852 138.277 10.2174 139.313 10.1934C141.771 10.118 143.456 11.1901 144.366 13.4095C144.876 12.436 145.594 11.6367 146.448 11.0911C147.359 10.5049 148.379 10.196 149.417 10.1925C150.455 10.1891 151.477 10.4912 152.391 11.0713C153.269 11.6574 153.973 12.5552 154.501 13.7646C155.029 14.974 155.294 16.539 155.295 18.4596V29.0826C155.297 29.3265 155.218 29.5616 155.074 29.737C155.001 29.8293 154.912 29.9021 154.813 29.9505C154.714 29.9989 154.608 30.0218 154.501 30.0176H150.815C150.706 30.0208 150.597 29.9975 150.496 29.9492C150.395 29.9009 150.303 29.8287 150.227 29.737C150.151 29.653 150.091 29.5516 150.05 29.439C150.009 29.3264 149.988 29.2051 149.989 29.0826V18.7216C149.989 17.8491 149.883 17.157 149.672 16.6454C149.495 16.178 149.194 15.7907 148.814 15.5415C148.431 15.3105 148.005 15.1949 147.575 15.205C147.181 15.2084 146.794 15.3239 146.447 15.5415C146.058 15.7879 145.746 16.1748 145.558 16.6454C145.335 17.157 145.223 17.8491 145.223 18.7216V29.0826C145.225 29.3265 145.146 29.5616 145.002 29.737C144.929 29.8293 144.84 29.9021 144.741 29.9505C144.642 29.9989 144.536 30.0218 144.429 30.0176H140.739C140.632 30.0219 140.526 29.999 140.427 29.9506C140.329 29.9022 140.24 29.8293 140.167 29.737C140.023 29.562 139.943 29.3268 139.945 29.0826V18.7216C139.945 17.8491 139.828 17.157 139.595 16.6454C139.399 16.1805 139.089 15.7957 138.705 15.5415C138.343 15.3164 137.939 15.2008 137.529 15.205C137.125 15.2051 136.726 15.3205 136.368 15.5415C135.979 15.7881 135.667 16.175 135.478 16.6454C135.255 17.157 135.144 17.8367 135.145 18.6843V29.0826C135.139 29.3287 135.054 29.5631 134.906 29.7371C134.758 29.9112 134.559 30.0116 134.35 30.0176H130.573Z" fill="#333333"/>
<path d="M166.518 30.3914C164.017 30.3914 162.026 29.5934 160.543 27.9973C159.06 26.4013 158.287 24.0325 158.222 20.8909V19.5809C158.285 17.6115 158.661 15.9223 159.35 14.5134C160.014 13.1337 161.009 12.0157 162.211 11.2998C163.429 10.5647 164.853 10.1971 166.486 10.1971C168.351 10.1971 169.892 10.6334 171.11 11.5059C172.303 12.3465 173.259 13.5827 173.858 15.0597C174.473 16.5564 174.78 18.2646 174.78 20.1843V21.0821C174.785 21.2063 174.767 21.3302 174.729 21.4461C174.691 21.5619 174.632 21.6671 174.558 21.755C174.483 21.8429 174.394 21.9116 174.295 21.9567C174.197 22.0018 174.092 22.0224 173.986 22.0171H163.816V22.2791C163.829 22.959 163.942 23.6311 164.149 24.2659C164.327 24.8283 164.636 25.3207 165.04 25.6877C165.458 26.0426 165.966 26.2231 166.482 26.2005C166.847 26.2148 167.211 26.132 167.546 25.9584C167.808 25.8155 168.049 25.6262 168.262 25.3971C168.418 25.2261 168.566 25.0449 168.706 24.8545C168.897 24.5801 169.05 24.4124 169.167 24.3491C169.345 24.2753 169.534 24.2437 169.723 24.256H173.664C173.858 24.2463 174.048 24.3271 174.192 24.4807C174.26 24.5563 174.312 24.6503 174.342 24.7546C174.372 24.8589 174.38 24.9703 174.366 25.0793C174.345 25.5039 174.165 26.0151 173.826 26.6128C173.418 27.2951 172.919 27.8951 172.349 28.3897C171.702 28.9758 170.893 29.4559 169.922 29.8301C168.951 30.2043 167.816 30.3914 166.518 30.3914ZM163.816 18.3093H169.187V18.2348C169.202 17.5149 169.099 16.7983 168.885 16.1239C168.704 15.5678 168.382 15.0908 167.963 14.758C167.523 14.4246 167.009 14.2549 166.486 14.2712C165.978 14.2564 165.478 14.4264 165.055 14.758C164.642 15.0976 164.321 15.5725 164.134 16.1239C163.91 16.7954 163.802 17.5133 163.818 18.2348L163.816 18.3093Z" fill="#333333"/>
<path d="M178.563 30.0176C178.456 30.0219 178.349 29.9991 178.25 29.9506C178.152 29.9022 178.063 29.8294 177.99 29.737C177.846 29.5616 177.766 29.3265 177.768 29.0826V11.5022C177.766 11.2582 177.846 11.0232 177.99 10.8478C178.063 10.7554 178.152 10.6825 178.25 10.6341C178.349 10.5857 178.456 10.5629 178.563 10.5671H182.217C182.326 10.564 182.435 10.5873 182.536 10.6355C182.637 10.6838 182.729 10.7561 182.805 10.8478C182.881 10.9318 182.941 11.0332 182.982 11.1458C183.023 11.2584 183.044 11.3797 183.043 11.5022V12.9984C183.592 12.2273 184.282 11.6132 185.062 11.2029C185.907 10.7662 186.823 10.5493 187.747 10.5671H189.146C189.251 10.5619 189.356 10.5824 189.455 10.6276C189.553 10.6727 189.643 10.7414 189.717 10.8293C189.792 10.9172 189.85 11.0224 189.889 11.1382C189.927 11.254 189.944 11.378 189.94 11.5022V15.3515C189.941 15.5955 189.861 15.8305 189.717 16.0059C189.645 16.0979 189.556 16.1706 189.457 16.219C189.359 16.2674 189.252 16.2904 189.146 16.2866H186.063C185.193 16.2866 184.521 16.5672 184.045 17.1284C183.568 17.6897 183.33 18.4811 183.329 19.5026V29.0789C183.33 29.2014 183.309 29.3227 183.268 29.4353C183.227 29.5478 183.167 29.6493 183.091 29.7333C183.014 29.825 182.923 29.8972 182.822 29.9455C182.721 29.9938 182.612 30.017 182.503 30.0139L178.563 30.0176Z" fill="#333333"/>
<path d="M196.866 30.3914C195.723 30.3914 194.7 30.136 193.799 29.6252C192.945 29.16 192.207 28.4452 191.654 27.5491C191.127 26.6895 190.849 25.6536 190.859 24.5937C190.859 22.8247 191.474 21.4219 192.703 20.3855C193.933 19.3491 195.564 18.6454 197.597 18.2746L201.571 17.5643V17.0403C201.571 16.1421 201.411 15.4562 201.093 14.9827C200.774 14.5092 200.192 14.2725 199.345 14.2725C198.752 14.2725 198.27 14.4095 197.899 14.6835C197.528 14.9575 197.227 15.3434 197.025 15.801C196.94 15.9555 196.821 16.0814 196.682 16.1667C196.543 16.2519 196.388 16.2936 196.231 16.2878H192.671C192.572 16.2947 192.471 16.2761 192.378 16.2332C192.285 16.1903 192.201 16.1242 192.131 16.0394C192.069 15.9631 192.023 15.8713 191.995 15.7709C191.968 15.6705 191.96 15.5641 191.972 15.4596C191.972 15.0101 192.115 14.4927 192.401 13.9074C192.688 13.3221 193.127 12.7427 193.72 12.169C194.313 11.5953 195.076 11.1214 196.008 10.7472C196.941 10.373 198.075 10.1863 199.409 10.1872C200.765 10.1872 201.93 10.3738 202.905 10.7472C203.88 11.1205 204.674 11.6445 205.288 12.3192C205.892 12.9739 206.355 13.7881 206.639 14.6947C206.933 15.6599 207.078 16.6792 207.068 17.7046V29.0764C207.063 29.3225 206.978 29.5569 206.83 29.7309C206.682 29.905 206.483 30.0054 206.274 30.0114H202.581C202.474 30.0157 202.368 29.9928 202.269 29.9444C202.171 29.896 202.082 29.8231 202.009 29.7308C201.865 29.5558 201.785 29.3206 201.787 29.0764V27.7738C201.483 28.2818 201.106 28.7245 200.675 29.0826C200.176 29.5012 199.623 29.8231 199.037 30.0362C198.334 30.2862 197.601 30.406 196.866 30.3914ZM198.36 26.1273C198.94 26.137 199.514 25.9765 200.028 25.6604C200.54 25.3311 200.952 24.8208 201.204 24.2014C201.49 23.5391 201.633 22.7113 201.634 21.7179V21.1939L198.932 21.7551C197.936 21.9555 197.21 22.2609 196.755 22.6715C196.3 23.0821 196.072 23.5623 196.072 24.1119C196.063 24.5064 196.175 24.8914 196.388 25.196C196.615 25.5074 196.906 25.7459 197.232 25.8889C197.593 26.0514 197.976 26.1322 198.362 26.1273H198.36Z" fill="#333333"/>
<path d="M211.456 30.0176C211.349 30.0218 211.243 29.9989 211.144 29.9505C211.045 29.9021 210.956 29.8293 210.883 29.737C210.739 29.5616 210.66 29.3265 210.662 29.0826V4.39449C210.657 4.2702 210.674 4.14609 210.712 4.03009C210.751 3.91409 210.809 3.80874 210.884 3.72077C210.958 3.63279 211.048 3.56411 211.147 3.51912C211.245 3.47413 211.351 3.45382 211.456 3.45947H215.206C215.311 3.45382 215.417 3.47413 215.515 3.51912C215.614 3.56411 215.703 3.63279 215.778 3.72077C215.853 3.80874 215.911 3.91409 215.949 4.03009C215.988 4.14609 216.005 4.2702 216 4.39449V29.0826C216.002 29.3265 215.922 29.5616 215.779 29.737C215.706 29.8293 215.617 29.9021 215.518 29.9505C215.419 29.9989 215.313 30.0218 215.206 30.0176H211.456Z" fill="#333333"/>
</g>
<defs>
<clipPath id="clip0_34_270">
<rect width="216" height="52" fill="white"/>
</clipPath>
</defs>
</svg>
