<svg width="110" height="109" viewBox="0 0 110 109" fill="none" xmlns="http://www.w3.org/2000/svg">
<path d="M92.4688 17.0312H17.5312C15.7245 17.0313 13.9917 17.749 12.7141 19.0266C11.4365 20.3042 10.7188 22.037 10.7188 23.8438V85.1562C10.7188 86.963 11.4365 88.6958 12.7141 89.9734C13.9917 91.251 15.7245 91.9688 17.5312 91.9688H92.4688C94.2755 91.9688 96.0083 91.251 97.2859 89.9734C98.5635 88.6958 99.2812 86.963 99.2812 85.1562V23.8438C99.2812 22.037 98.5635 20.3042 97.2859 19.0266C96.0083 17.749 94.2755 17.0313 92.4688 17.0312ZM40.0125 61.9938C40.7352 62.5358 41.213 63.3427 41.3408 64.237C41.4685 65.1313 41.2358 66.0398 40.6938 66.7625C40.1517 67.4852 39.3448 67.963 38.4505 68.0908C37.5562 68.2185 36.6477 67.9858 35.925 67.4437L22.3 57.225C21.877 56.9077 21.5336 56.4963 21.2971 56.0233C21.0606 55.5503 20.9375 55.0288 20.9375 54.5C20.9375 53.9712 21.0606 53.4497 21.2971 52.9767C21.5336 52.5037 21.877 52.0923 22.3 51.775L35.925 41.5562C36.6477 41.0142 37.5562 40.7815 38.4505 40.9092C39.3448 41.037 40.1517 41.5148 40.6938 42.2375C41.2358 42.9602 41.4685 43.8687 41.3408 44.763C41.213 45.6573 40.7352 46.4642 40.0125 47.0063L30.0194 54.5L40.0125 61.9938ZM65.0868 31.593L51.4618 79.2805C51.3456 79.7182 51.1434 80.1283 50.8669 80.487C50.5904 80.8456 50.2451 81.1455 49.8513 81.3691C49.4575 81.5927 49.0231 81.7355 48.5734 81.7892C48.1237 81.843 47.6679 81.8065 47.2325 81.6819C46.7971 81.5574 46.3909 81.3472 46.0377 81.0638C45.6845 80.7804 45.3913 80.4294 45.1754 80.0314C44.9594 79.6333 44.825 79.1962 44.78 78.7456C44.735 78.295 44.7803 77.8399 44.9132 77.407L58.5382 29.7195C58.8001 28.8668 59.386 28.1509 60.17 27.7255C60.9541 27.3002 61.8737 27.1993 62.7313 27.4447C63.5889 27.69 64.316 28.262 64.7565 29.0376C65.1969 29.8133 65.3155 30.7308 65.0868 31.593ZM87.7 57.225L74.075 67.4437C73.3523 67.9858 72.4438 68.2185 71.5495 68.0908C70.6552 67.963 69.8483 67.4852 69.3063 66.7625C68.7642 66.0398 68.5315 65.1313 68.6592 64.237C68.787 63.3427 69.2648 62.5358 69.9875 61.9938L79.9806 54.5L69.9875 47.0063C69.6296 46.7379 69.3282 46.4016 69.1003 46.0167C68.8724 45.6318 68.7225 45.2058 68.6592 44.763C68.596 44.3201 68.6206 43.8692 68.7316 43.4359C68.8426 43.0026 69.0379 42.5954 69.3063 42.2375C69.5746 41.8796 69.9109 41.5782 70.2958 41.3503C70.6807 41.1224 71.1067 40.9725 71.5495 40.9092C71.9924 40.846 72.4433 40.8706 72.8766 40.9816C73.3099 41.0926 73.7171 41.2879 74.075 41.5562L87.7 51.775C88.123 52.0923 88.4664 52.5037 88.7029 52.9767C88.9394 53.4497 89.0625 53.9712 89.0625 54.5C89.0625 55.0288 88.9394 55.5503 88.7029 56.0233C88.4664 56.4963 88.123 56.9077 87.7 57.225Z" fill="#0075BC"/>
</svg>
