<svg width="110" height="109" viewBox="0 0 110 109" fill="none" xmlns="http://www.w3.org/2000/svg">
<path d="M13.7917 4.54163H86.4583C87.6629 4.54163 88.8181 5.02012 89.6698 5.87185C90.5215 6.72358 91 7.87877 91 9.08329V27.25C91 28.4545 90.5215 29.6097 89.6698 30.4614C88.8181 31.3131 87.6629 31.7916 86.4583 31.7916H13.7917C12.5871 31.7916 11.432 31.3131 10.5802 30.4614C9.7285 29.6097 9.25 28.4545 9.25 27.25V9.08329C9.25 7.87877 9.7285 6.72358 10.5802 5.87185C11.432 5.02012 12.5871 4.54163 13.7917 4.54163ZM13.7917 40.875H86.4583C87.6629 40.875 88.8181 41.3535 89.6698 42.2052C90.5215 43.0569 91 44.2121 91 45.4166V48.4595L79.6458 43.4183L50.125 56.4983V68.125H13.7917C12.5871 68.125 11.432 67.6465 10.5802 66.7947C9.7285 65.943 9.25 64.7878 9.25 63.5833V45.4166C9.25 44.2121 9.7285 43.0569 10.5802 42.2052C11.432 41.3535 12.5871 40.875 13.7917 40.875ZM13.7917 77.2083H50.125C50.3975 87.427 54.6667 97.1916 61.2975 104.458H13.7917C12.5871 104.458 11.432 103.98 10.5802 103.128C9.7285 102.276 9.25 101.121 9.25 99.9166V81.75C9.25 80.5454 9.7285 79.3902 10.5802 78.5385C11.432 77.6868 12.5871 77.2083 13.7917 77.2083ZM36.5 22.7083H41.0417V13.625H36.5V22.7083ZM36.5 59.0416H41.0417V49.9583H36.5V59.0416ZM36.5 95.375H41.0417V86.2916H36.5V95.375ZM18.3333 13.625V22.7083H27.4167V13.625H18.3333ZM18.3333 49.9583V59.0416H27.4167V49.9583H18.3333ZM18.3333 86.2916V95.375H27.4167V86.2916H18.3333ZM79.6458 54.5L100.083 63.5833V77.2083C100.083 89.8341 91.3633 101.597 79.6458 104.458C67.9283 101.597 59.2083 89.8341 59.2083 77.2083V63.5833L79.6458 54.5ZM79.6458 63.3108L68.2917 68.3975V80.4783C68.2917 87.4725 73.1513 94.0125 79.6458 95.6475V63.3108Z" fill="#0075BC"/>
</svg>
