<svg width="110" height="110" viewBox="0 0 110 110" fill="none" xmlns="http://www.w3.org/2000/svg">
<path d="M72.682 84.2025C72.2285 83.0898 71.3525 82.2022 70.2459 81.734C69.1393 81.2658 67.8922 81.2552 66.7778 81.7046C59.1254 84.7696 50.5865 84.7696 42.9341 81.7046C42.3824 81.478 41.7915 81.3622 41.195 81.3639C40.5986 81.3657 40.0084 81.4849 39.458 81.7147C38.9076 81.9445 38.4079 82.2805 37.9874 82.7035C37.5669 83.1265 37.2338 83.6281 37.0072 84.1798C36.7806 84.7315 36.6648 85.3224 36.6665 85.9188C36.6683 86.5153 36.7875 87.1055 37.0173 87.6559C37.2472 88.2062 37.5832 88.7059 38.0061 89.1264C38.4291 89.547 38.9307 89.88 39.4824 90.1067C49.3275 94.0961 60.339 94.0961 70.1841 90.1067C71.2968 89.6532 72.1844 88.7772 72.6526 87.6705C73.1208 86.5639 73.1313 85.3169 72.682 84.2025ZM72.7274 25.9329C77.0123 28.8508 80.5187 32.7723 82.941 37.3556C85.3632 41.9389 86.628 47.0451 86.6249 52.2292C86.6145 53.5643 86.5388 54.8981 86.3978 56.2258C86.3263 56.8223 86.3729 57.4269 86.535 58.0053C86.6971 58.5838 86.9716 59.1246 87.3427 59.5969C87.7138 60.0693 88.1743 60.4639 88.698 60.7582C89.2216 61.0526 89.7981 61.2409 90.3945 61.3125C90.9909 61.3841 91.5956 61.3375 92.174 61.1754C92.7524 61.0132 93.2932 60.7388 93.7656 60.3677C94.2379 59.9965 94.6325 59.536 94.9269 59.0124C95.2212 58.4887 95.4096 57.9123 95.4812 57.3158C95.6757 55.6277 95.7516 53.928 95.7082 52.2292C95.7112 45.569 94.0865 39.009 90.9758 33.1199C87.865 27.2308 83.3623 22.1911 77.8595 18.4392C77.3677 18.0935 76.8123 17.8488 76.2253 17.7194C75.6383 17.59 75.0314 17.5784 74.4399 17.6853C73.8484 17.7922 73.2839 18.0155 72.7794 18.3422C72.2748 18.6688 71.8401 19.0924 71.5004 19.5884C71.1608 20.0843 70.9229 20.6428 70.8007 21.2313C70.6785 21.8199 70.6744 22.4268 70.7885 23.017C70.9027 23.6071 71.1328 24.1688 71.4656 24.6693C71.7985 25.1699 72.2273 25.5994 72.7274 25.9329ZM19.3174 61.2671C20.5085 61.1194 21.5927 60.5062 22.3331 59.5616C23.0734 58.617 23.4098 57.4177 23.2687 56.2258C23.2035 54.8944 23.2035 53.5606 23.2687 52.2292C23.2403 47.0654 24.4703 41.9724 26.8522 37.3906C29.234 32.8088 32.6961 28.8763 36.9391 25.9329C37.4391 25.5994 37.868 25.1699 38.2009 24.6693C38.5337 24.1688 38.7638 23.6071 38.878 23.017C38.9921 22.4268 38.988 21.8199 38.8658 21.2313C38.7436 20.6428 38.5057 20.0843 38.1661 19.5884C37.8264 19.0924 37.3917 18.6688 36.8871 18.3422C36.3825 18.0155 35.8181 17.7922 35.2266 17.6853C34.6351 17.5784 34.0282 17.59 33.4412 17.7194C32.8542 17.8488 32.2987 18.0935 31.807 18.4392C26.3041 22.1911 21.8015 27.2308 18.6907 33.1199C15.5799 39.009 13.9553 45.569 13.9582 52.2292C13.945 53.9301 14.0513 55.6298 14.2762 57.3158C14.4239 58.5069 15.037 59.5911 15.9816 60.3315C16.9263 61.0719 18.1255 61.4082 19.3174 61.2671ZM71.5012 43.1458C71.6737 43.1512 71.8452 43.1172 72.0025 43.0464C72.1599 42.9756 72.2991 42.8698 72.4095 42.7371C72.5109 42.6023 72.5834 42.448 72.6225 42.2839C72.6616 42.1198 72.6664 41.9494 72.6366 41.7833C71.7189 37.7016 69.4406 34.0533 66.1756 31.4375C62.9107 28.8217 58.8533 27.394 54.6697 27.3887C50.4862 27.3834 46.4252 28.8009 43.1536 31.4085C39.8821 34.016 37.5945 37.6586 36.6666 41.7379C36.5904 41.8934 36.5508 42.0643 36.5508 42.2375C36.5508 42.4107 36.5904 42.5816 36.6666 42.7371C36.8902 42.9803 37.1997 43.1268 37.5295 43.1458H71.5012ZM43.4791 11.3542C43.4791 14.3655 44.6753 17.2535 46.8046 19.3828C48.934 21.5121 51.8219 22.7083 54.8332 22.7083C57.8446 22.7083 60.7325 21.5121 62.8619 19.3828C64.9912 17.2535 66.1874 14.3655 66.1874 11.3542C66.1874 8.34286 64.9912 5.45488 62.8619 3.32556C60.7325 1.19624 57.8446 0 54.8332 0C51.8219 0 48.934 1.19624 46.8046 3.32556C44.6753 5.45488 43.4791 8.34286 43.4791 11.3542ZM91.1666 93.1042C86.9297 93.0707 82.8105 94.4973 79.5019 97.1442C76.1934 99.791 73.8973 103.497 72.9999 107.638C72.9666 107.801 72.9695 107.969 73.0086 108.131C73.0476 108.293 73.1217 108.444 73.2257 108.574C73.3297 108.704 73.4611 108.81 73.6104 108.883C73.7597 108.957 73.9234 108.997 74.0899 109H107.971C108.314 108.983 108.639 108.837 108.879 108.591C108.947 108.433 108.981 108.263 108.981 108.092C108.981 107.92 108.947 107.75 108.879 107.592C107.99 103.535 105.757 99.8976 102.542 97.2682C99.3274 94.6387 95.3191 93.1715 91.1666 93.1042ZM79.9487 77.2083C79.9487 80.2197 81.1449 83.1076 83.2742 85.2369C85.4035 87.3663 88.2915 88.5625 91.3028 88.5625C94.3141 88.5625 97.2021 87.3663 99.3314 85.2369C101.461 83.1076 102.657 80.2197 102.657 77.2083C102.657 74.197 101.461 71.3091 99.3314 69.1797C97.2021 67.0504 94.3141 65.8542 91.3028 65.8542C88.2915 65.8542 85.4035 67.0504 83.2742 69.1797C81.1449 71.3091 79.9487 74.197 79.9487 77.2083ZM18.4999 93.1042C14.263 93.0707 10.1438 94.4973 6.83526 97.1442C3.52669 99.791 1.23061 103.497 0.333241 107.638C0.266921 107.788 0.232666 107.95 0.232666 108.114C0.232666 108.279 0.266921 108.441 0.333241 108.591C0.479813 108.804 0.694775 108.961 0.942547 109.035C1.19032 109.11 1.45604 109.097 1.69574 109H35.5312C35.7062 109.005 35.8801 108.97 36.0392 108.896C36.1983 108.823 36.3383 108.714 36.4483 108.578C36.5582 108.441 36.6352 108.282 36.673 108.111C36.7109 107.94 36.7087 107.762 36.6666 107.592C35.7524 103.464 33.4503 99.7732 30.1443 97.1367C26.8384 94.5002 22.7284 93.0769 18.4999 93.1042ZM7.46366 77.2083C7.46366 80.2197 8.6599 83.1076 10.7892 85.2369C12.9185 87.3663 15.8065 88.5625 18.8178 88.5625C21.8291 88.5625 24.7171 87.3663 26.8464 85.2369C28.9758 83.1076 30.172 80.2197 30.172 77.2083C30.172 74.197 28.9758 71.3091 26.8464 69.1797C24.7171 67.0504 21.8291 65.8542 18.8178 65.8542C15.8065 65.8542 12.9185 67.0504 10.7892 69.1797C8.6599 71.3091 7.46366 74.197 7.46366 77.2083Z" fill="#0075BC"/>
</svg>
